<?xml version="1.0" standalone="no"?>
<!DOCTYPE svg PUBLIC "-//W3C//DTD SVG 1.1//EN" "http://www.w3.org/Graphics/SVG/1.1/DTD/svg11.dtd" >
<svg xmlns="http://www.w3.org/2000/svg" xmlns:xlink="http://www.w3.org/1999/xlink" version="1.1">
<metadata></metadata>
<defs>
<font id="justice_leagueregular" horiz-adv-x="1705" >
<font-face units-per-em="2048" ascent="1638" descent="-410" />
<missing-glyph horiz-adv-x="819" />
<glyph horiz-adv-x="0" />
<glyph unicode="&#xd;" horiz-adv-x="819" />
<glyph unicode=" "  horiz-adv-x="819" />
<glyph unicode="&#x09;" horiz-adv-x="819" />
<glyph unicode="&#xa0;" horiz-adv-x="819" />
<glyph unicode="#" horiz-adv-x="1253" d="M102 629l45 241h115l39 293h-141l47 240h129l84 645h285l-91 -641h140l92 641h276l-82 -645h111l-41 -240h-106l-37 -293h127l-41 -241h-121l-84 -631h-279q0 14 4.5 36.5t13.5 86t24.5 181.5t39.5 323h-141l-86 -627h-281l47 334v6l39 291h-127zM543 870h139l41 291 h-137z" />
<glyph unicode="$" horiz-adv-x="950" d="M102 117v655q2 0 8.5 -3t32 -19.5t77.5 -50t149 -95.5v-293l4 -4q2 -2 2 -4t2 -4l2 -2h194v539l-149 108q6 8 21.5 21.5t34 29t35.5 28.5t28 21q4 6 8 4.5t10 -4.5l168 -126l-61 219h10q2 0 13 -8.5t26.5 -19.5t31 -23.5t25.5 -20.5q8 -6 20.5 -17.5t24.5 -25.5 t20.5 -28.5t8.5 -26.5v-850q0 -23 -12.5 -41.5t-31 -33.5t-39 -25.5t-38.5 -16.5h-107.5h-145.5h-148.5h-114.5q-14 6 -32.5 18.5t-36 28.5t-29 34.5t-11.5 35.5zM102 1223v710q0 16 13.5 36t32 37t39 29.5t36.5 12.5h512q16 0 36 -13.5t37 -31.5t28.5 -39.5t11.5 -38.5 v-330l-275 -161v325h-180q-4 0 -10 -6t-6 -10v-377q4 -8 17.5 -19.5t29.5 -23.5t30.5 -23.5t22.5 -17.5q4 -4 3 -14.5t-7 -10.5h-188l-4 -4l159 -118l-49 -170l-237 174q-16 14 -34 37.5t-18 46.5z" />
<glyph unicode="%" horiz-adv-x="1642" d="M102 1765h224l88 287l88 -287h215q16 4 -31 -27.5t-139 -117.5l71 -234l-204 140l-195 -140l66 236q-68 51 -105 79t-54 41t-20.5 17t-3.5 6zM393 0l592 2048h279l-592 -2048h-279zM922 375h223l88 287l88 -287h215q16 4 -31 -28t-139 -118l72 -233l-205 139l-195 -139 l66 235q-68 51 -104.5 79t-54 41.5t-20.5 17.5t-3 6z" />
<glyph unicode="&#x26;" horiz-adv-x="2150" d="M102 819v64q8 0 21.5 -15.5t17.5 -7.5l146 191l98 94h4q4 -12 6 -28.5t17 -20.5l340 -84l-11 -6h-82l-280 28l-178 -215q-2 -4 -2 -22.5t2 -28.5q0 -4 4 -29.5t6 -40.5q2 -4 5 -8t-1 -8l217 -559v-12l-21.5 21.5t-21.5 25.5q-4 2 -12 13t-18.5 23.5t-18.5 22.5t-10 14 l-4 5l-193 462zM240 1497l288 551v-8l-190 -506v-59q0 -6 1 -20.5t3 -28t4 -25.5t2 -15q2 -12 6 -29.5t8.5 -33.5t7.5 -29l3 -12l6 -4q8 -4 31.5 -15.5t50 -22.5t49 -22.5t31.5 -15.5q4 -2 13 -8t20.5 -12t19.5 -11.5t12 -7.5q2 0 10 -4l179 -129h-9l-413 180h-4 q-4 0 -6.5 -8t-4.5 -15t-6 -7t-14 18q-10 20 -18.5 38.5t-14.5 41.5q-12 49 -22.5 107.5t-8.5 111.5h-34zM356 1135q0 2 2 2t2 -2t-2 -2t-2 2zM363 1006q0 2 2 2t2 -2t-2 -2t-2 2zM438 524h4q4 -4 16.5 -9t16.5 -7l49 321q4 25 18.5 67t32.5 60q2 2 5.5 0t5.5 -4t7 -10 t5 -10h8l201 41h16q-8 -8 -20 -14.5t-17 -10.5l-188 -88l-70 -399l136 -201l237 -250h-4q-2 0 -22.5 12.5t-32.5 18.5l-4 2l-179 143q-6 4 -21 19.5t-32.5 33t-33 35t-21.5 25.5t-18.5 25.5t-26.5 38t-25.5 39t-13.5 26.5q-8 20 -19.5 46t-9.5 50zM567 1245v4q2 10 6.5 24.5 t6.5 14.5l157 273v4q-4 0 -10 3t-10 3l-6 4l196 278v-6l-39 -129l-217 -415q-2 -4 0 -8.5t4 -6.5l179 -211q2 -6 11 -17t13 -20h-6q-2 0 -7 4.5t-7 6.5l-228 198q-6 8 -20.5 2t-22.5 -6zM600 1348q0 2 2 2t2 -2t-2 -2t-2 2zM698 498v139q0 2 3.5 12t6.5 23.5t7 27t6 21.5 q31 88 97.5 149.5t152.5 96.5l4 4q-14 14 -33.5 38.5t-19.5 47.5v94q0 6 5 15.5t11 19.5t11 18t3 10q-35 47 -22.5 75t61.5 48v-4q-16 -47 -18 -64.5t7 -19.5t28.5 6.5t46.5 12.5q53 6 104 -23q16 6 17.5 18.5t-4 26t-10.5 26.5t-3 21q4 -2 21.5 -13t25.5 -7l-4 -4 q29 -23 23 -48.5t-27 -50.5v-4q35 -59 33 -126.5t-60 -112.5q20 -12 43 -19.5t46 -19.5q4 -2 20 -14.5t18 -14.5q2 0 11 -4q51 -47 87 -103.5t52 -123.5q20 -86 7 -171t-56 -156t-110.5 -122t-155.5 -65q-6 -2 -22.5 -3t-34 -1t-33 1t-21.5 3q-2 0 -33 7t-47 11 q-41 12 -85 47t-79 80t-57.5 96.5t-22.5 98.5zM762 1061q0 2 2 2t2 -2t-2 -2t-2 2zM774 1672q0 1 2 1q4 0 4 -1t-4 -1q-2 0 -2 1zM901 5q0 1 2 1t2 -1t-2 -1t-2 1zM940 1206q0 2 2 2q4 0 4 -2t-4 -2q-2 0 -2 2zM1235 5q0 1 2 1t2 -1t-2 -1t-2 1zM1237 1858l84 -119 q4 -8 12 -21l107 -143l-6 -4q-4 0 -10.5 -3t-10.5 -3v-9l156 -268q4 0 8 -14t6 -25v-4q-8 0 -22.5 6t-20.5 -2l-242 -209l-10 -6l195 244q4 2 12 11t4 14l-117 210q-2 0 -4 3.5t0 5.5l-110 231zM1239 14q0 2 4 2q2 0 2 -2t-2 -2q-4 0 -4 2zM1243 2l262 279q4 12 15 18 l90 135q2 2 8 13.5t4 19.5l-68 393l-190 88q-4 4 -16.5 10.5t-20.5 14.5h16l201 -41h10q10 20 17.5 22t12.5 -2t7 -12l2 -8l35 -103l47 -321q4 2 16.5 7t16.5 9h4q2 -16 -5 -37.5t-11 -27.5q-4 -14 -14.5 -38t-14.5 -28l-88 -119l-188 -172zM1301 1653q0 2 2 2t2 -2t-2 -2 t-2 2zM1360 1030l6 10l252 164l156 74l4 4l3 12q3 13 7 29t8 33.5t6 29.5q0 2 2 14.5t4 26t3 27.5t1 21v59l-174 451q-4 4 -9 24.5t-7 30.5v8l70 -133l4 -4l96 -185q6 -4 4 -8l111 -213v-10h-31l-21 -182q0 -6 -9 -33t-15 -37q-2 -6 -11.5 -26.5t-13.5 -26.5q0 -2 -4 -5 t-6 -5q-2 0 -2 2t-2 4q-2 4 -5 13t-5 11h-4zM1389 94q0 2 2 2t2 -2t-2 -2t-2 2zM1397 1104q0 2 2 2t2 -2t-2 -2t-2 2zM1399 1012l340 84q14 4 16 20.5t6 28.5h4l205 -223v-4l39 -58q2 -4 7 -1t11.5 7t11.5 9.5t9 7.5v-64l-172 -481q-20 -59 -63.5 -121.5t-94.5 -105.5v4 l211 549q0 2 3 14t6.5 28.5t6.5 34t5 27.5t5 25.5t-1 19.5l-180 221l-287 -28h-78zM1405 1438q0 2 4 2q2 0 2 -2t-2 -2q-4 0 -4 2zM1411 1622q0 2 2 2t2 -2t-2 -2t-2 2zM1546 235.5q0 2.5 2 2.5t2 -2.5t-2 -2.5t-2 2.5zM1585 274q0 2 2 2q4 0 4 -2t-4 -2q-2 0 -2 2z M1585 420q0 2 2 2q4 0 4 -2t-4 -2q-2 0 -2 2zM1659 1155q0 2 2 2q4 0 4 -2t-4 -2q-2 0 -2 2zM1714 1888v4q2 0 2 -2t-2 -2zM1729 117q0 4 2 4t2 -4t-2 -4t-2 4z" />
<glyph unicode="*" horiz-adv-x="823" d="M102 1274h224l88 287l88 -287h215q16 4 -31 -28t-139 -118l71 -233l-204 139l-195 -139l66 235q-68 51 -105 79t-54 41.5t-20.5 17.5t-3.5 6z" />
<glyph unicode="," horiz-adv-x="497" d="M102 0v293h293v-293l-182 -197l-4 197h-107z" />
<glyph unicode="-" horiz-adv-x="1075" d="M102 956v304h871v-304h-871z" />
<glyph unicode="." horiz-adv-x="473" d="M102 0v293h269v-293h-269z" />
<glyph unicode="/" horiz-adv-x="1075" d="M102 0l592 2048h279l-592 -2048h-279z" />
<glyph unicode="0" />
<glyph unicode="1" />
<glyph unicode="2" />
<glyph unicode="3" />
<glyph unicode="4" />
<glyph unicode="5" />
<glyph unicode="6" />
<glyph unicode="7" />
<glyph unicode="8" />
<glyph unicode="9" />
<glyph unicode="?" horiz-adv-x="950" d="M102 1606v301q0 27 11.5 52.5t31 44.5t45 30.5t52.5 11.5h485q25 0 46.5 -14.5t37.5 -36t26.5 -47t10.5 -45.5v-689q0 -12 -3 -32.5t-8.5 -43t-13.5 -42t-20 -29.5l-195 -149q-20 -16 -29.5 -42t-11.5 -51.5t-1 -34.5l3 -28l-2 -8q-2 -9 -4 -45.5t-3 -113.5t1 -214h-270 v463q2 41 1 88t19 84l232 219l18 31v411q0 12 -13 23.5t-30.5 20t-36 12.5t-28.5 4t-27.5 -5.5t-34 -13.5t-28 -19t-11.5 -24v-325zM293 0v293h268v-293h-268z" />
<glyph unicode="@" horiz-adv-x="2398" d="M102 1552q0 113 34 204t98.5 155.5t155.5 98.5t206 34q125 0 243.5 -32t229.5 -85t214 -122.5t200 -143.5h2q35 0 70.5 11t72.5 11h449l-142 -536v-4q29 -47 53.5 -94.5t47.5 -94.5q2 -4 6 -14t9 -21.5t10 -22.5t5 -13q6 0 7 -9v54q14 -6 27.5 -30t25.5 -51.5t20 -54 t13 -40.5q6 -23 9 -41.5t7 -36t12 -32.5t25 -32q2 -2 10 -9t18.5 -16.5t18.5 -16.5t10 -9l27 -27v-4l-76 -79l-8 -269q-4 6 -12.5 21.5t-17.5 32t-17 31t-11 20.5q-4 6 -10 20t-16 21q-53 -168 -176 -247t-295 -79q-180 0 -353.5 65.5t-322.5 163.5q-78 51 -150.5 108.5 t-144.5 119.5q-2 2 -3 4t-3 4t-6 4h-400l93 348v8q-53 82 -100.5 168t-84.5 177.5t-58.5 186.5t-21.5 195zM203 1567q0 -106 33.5 -204.5t87 -188t120 -172t134.5 -158.5h-5q-29 16 -59.5 27.5t-64.5 11.5h-11.5t-9.5 -4l-8 -27l-82 -311h420q20 0 43.5 6t44.5 12 q96 29 144 84t75 148q6 23 18.5 66.5t24.5 89.5t22.5 83t14.5 47q2 12 13 54.5t23.5 92.5l24 96t17.5 69q14 55 14 114v43q-8 33 -29.5 60.5t-58.5 27.5h-524q-2 -2 -2 -4t-1 -4t-1 -4q-2 -4 -5.5 -15.5t-3.5 -15.5q-4 -18 -15 -58t-23.5 -89t-27 -103.5t-27.5 -103.5 t-23.5 -89t-14.5 -58l-6 -13q-8 12 -14 28.5t-6 33.5v4l43 176v2q0 4 -13.5 25.5t-31 46t-32.5 48t-20 32.5q-47 84 -71.5 165.5t-24.5 180.5q-53 -45 -77.5 -115t-24.5 -137zM463 1624q0 -59 14.5 -120.5t38.5 -114.5q0 2 2 7t2 7q4 14 14.5 54t22.5 85t22.5 85t14.5 56h94 h96q20 0 73.5 -1t113 -1t113 -1t73.5 -1q55 -8 95 -44t51 -93q23 27 43 44.5t49 35.5l-4 4q-4 2 -13.5 8t-13.5 11q-4 2 -21.5 11t-23.5 13q-131 78 -275.5 136.5t-300.5 58.5q-123 0 -201.5 -54.5t-78.5 -185.5zM580 840q0 2 2 2t2 -2t-2 -2t-2 2zM612 659q27 14 37 44 t21 57q41 137 76.5 274t72.5 275q10 41 24.5 84t14.5 84q0 14 -3 21t-13 18h86q10 0 21.5 -8.5t15.5 -18.5v-25q0 -14 -1 -25.5t-6 -23.5q-4 -20 -14 -60t-23.5 -91.5t-28.5 -107.5t-28.5 -107.5t-25 -92.5t-15.5 -59q-23 -80 -49 -154q-16 -47 -55 -65.5t-84 -18.5h-23z M934 518q82 -57 178 -113.5t198.5 -101.5t209 -72.5t211.5 -27.5q104 0 185 34.5t150 110.5q2 2 7.5 8t7.5 9q-59 -47 -124 -68t-138 -21q-104 0 -206 33t-198 85t-185 113.5t-169 121.5q-25 -23 -44.5 -46.5t-47.5 -41.5q-4 -2 -16.5 -9.5t-14.5 -9.5q-4 0 -4 -4zM1087 655 q0 -6 14.5 -16t34 -22.5t37 -22.5t23.5 -14q4 -2 29.5 -15.5t38.5 -19.5q0 -2 4 -2q2 0 4 -2h254q20 0 41.5 11t38.5 19q80 43 123 115t65 158q6 20 15.5 54t17.5 65.5t14 54.5l6 24v9h-272q-4 -12 -13.5 -45t-18.5 -68t-18 -67.5t-12 -45.5q-10 -37 -21 -66.5t-28.5 -52 t-46 -35t-71.5 -12.5h-21q31 23 43 60t23 72l153 571q16 66 61.5 115t116.5 49q8 0 11 -6q-29 -25 -42.5 -53.5t-23.5 -63.5q-6 -20 -14 -51t-15.5 -60.5t-13.5 -51t-6 -23.5v-9h274l111 430h-389q-41 0 -87 -14t-88 -38.5t-77 -57.5t-55 -70q-23 -41 -36.5 -87t-25.5 -93 q-6 -23 -18.5 -69t-27.5 -104t-31.5 -124t-32 -124t-26.5 -105t-17 -70q-2 -8 -3.5 -14.5t-1.5 -12.5zM1450 469q0 -4 6 -6q4 -2 8 -2q61 -18 123 -30.5t125 -12.5q68 0 136.5 19.5t113.5 72.5q4 4 13.5 16.5t9.5 22.5q0 4 -7 14l-139 197q-4 4 -8 4h-2 q-39 -133 -140.5 -208t-236.5 -85zM1839 791q45 -6 87 -16.5t83 -26.5v12q0 72 -28.5 156.5t-63.5 146.5q0 4 -4 4q-4 -12 -13.5 -47t-19.5 -73t-19.5 -72.5t-13.5 -49.5q-2 -4 -5 -17t-3 -17zM1913 733q4 -4 17.5 -21.5t17.5 -21.5q6 -8 20 -26.5t30.5 -40t31 -40 t20.5 -24.5q-18 -59 -51 -106t-72 -93h29q41 0 79 18.5t72 43.5h4l13 -19q20 -27 34.5 -55.5t30.5 -56.5l4 8v166l7 6q20 16 34.5 27.5t30.5 33.5q-20 23 -47 39.5t-45 38.5q-4 10 -10 42t-9 42q-2 6 -6 23.5t-10 36t-13 35t-14 20.5l-4 -4q-4 -27 -6 -50.5t-8 -47.5 q-2 -4 -2 -9.5t-2 -11.5q-2 -8 -4 -14h-4q-35 18 -81 42.5t-87 24.5v-6z" />
<glyph unicode="A" horiz-adv-x="1157" d="M102 0l244 2048h465l244 -2048h-275l-39 311h-325l-37 -311h-277zM455 614h252l-129 1028z" />
<glyph unicode="B" horiz-adv-x="1052" d="M102 0v2050h666q27 0 49.5 -16.5t38.5 -41t26.5 -52t14.5 -50.5v-118.5t-1 -159.5t-1 -163v-128q-20 -94 -81.5 -164t-133.5 -131q90 -53 167 -127t99 -180q0 -37 1 -113t2 -161t1 -164.5v-128.5q-4 -23 -15 -48.5t-28.5 -49t-40 -39t-49.5 -15.5h-715zM381 291h274v407 l-219 162q-2 0 -5 2t-5 2q-8 -4 -22.5 -14t-22.5 -21v-538zM381 1182l225 166v403h-225v-569z" />
<glyph unicode="C" horiz-adv-x="968" d="M102 133v1782q0 25 12.5 49.5t31 42.5t43 29.5t49.5 11.5h505q18 0 40 -13.5t40.5 -31.5t30.5 -41t12 -41v-465l-276 -201v498q0 4 -5 9t-10 5h-182q-12 0 -12 -14v-1458q0 -4 4 -8t8 -4h182q4 0 9.5 4t5.5 8v498l276 -199v-467q0 -18 -12 -41t-30.5 -41t-40 -31.5 t-40.5 -13.5h-505q-25 0 -49.5 11.5t-43 30.5t-31 43t-12.5 48z" />
<glyph unicode="D" horiz-adv-x="1024" d="M102 0v1245v803h598q92 0 157 -64.5t65 -154.5v-1610q0 -90 -64.5 -154.5t-157.5 -64.5h-598zM395 293h187q18 0 32.5 13t14.5 46v1356q0 18 -15.5 32.5t-31.5 14.5h-187v-1462z" />
<glyph unicode="E" horiz-adv-x="927" d="M102 0v2048h723v-291h-444v-506h403l-82 -293h-321v-667h444v-291h-723z" />
<glyph unicode="F" horiz-adv-x="927" d="M102 0v2048h723v-291h-444v-506h403l-82 -293h-321l4 -958h-283z" />
<glyph unicode="G" horiz-adv-x="1040" d="M102 131v1790q10 53 53.5 90t98.5 37h549q18 4 38.5 -7t40 -29.5t35 -41t21.5 -41.5v-438l-291 -193v482h-248v-1495h244v559h-160l86 276h369v-1120h-205q-4 4 -12 26.5t-10 28.5l-152 -55h-305q-4 0 -20.5 1t-20.5 5q-29 10 -55.5 28.5t-38.5 47.5q-4 8 -10.5 27.5 t-6.5 21.5z" />
<glyph unicode="H" horiz-adv-x="1073" d="M102 0v2048h275v-791h319v791h275v-2048h-275v952h-319v-952h-275z" />
<glyph unicode="I" horiz-adv-x="475" d="M102 0v2048h271v-2048h-271z" />
<glyph unicode="J" horiz-adv-x="964" d="M102 117v477l267 197v-486l12 -18h205v1460h-271l-82 301h629v-1905q0 -29 -12 -54.5t-32.5 -44.5t-46.5 -31.5t-52 -12.5h-490q-4 0 -16 3t-16 5q-12 4 -28.5 16.5t-31 29t-25 32.5t-10.5 31z" />
<glyph unicode="K" horiz-adv-x="1099" d="M102 0v2048h285v-797l176 131l135 666h299l-174 -793l-188 -149l188 -119l174 -987h-299l-133 825l-174 111v-936h-289z" />
<glyph unicode="L" horiz-adv-x="845" d="M102 0v2048h277v-1757h364v-291h-641z" />
<glyph unicode="M" horiz-adv-x="1421" d="M102 0v2048h344l269 -481l266 481h338v-2048h-277v1567l-188 -316v-1251h-276v1251l-199 330v-1581h-277z" />
<glyph unicode="N" horiz-adv-x="1071" d="M102 0v2048h277l317 -760v760h273v-2048h-273v598l-317 758v-1356h-277z" />
<glyph unicode="O" horiz-adv-x="1024" d="M102 176v1696q0 74 49.5 125t122.5 51h471q74 0 125.5 -51t51.5 -125v-1696q0 -74 -51.5 -125t-125.5 -51h-471q-74 0 -123 51t-49 125zM389 295q0 -10 10.5 -20.5t24.5 -10.5h178q14 0 23.5 10.5t9.5 20.5v1446q0 31 -33 31h-178q-35 0 -35 -31v-1446z" />
<glyph unicode="P" horiz-adv-x="1001" d="M102 0v2048h680q47 0 74 -45t43 -94v-576q0 -35 -13.5 -68.5t-34 -64.5t-47 -55.5t-50.5 -42.5l-375 -273v-829h-277zM381 1174q10 8 37.5 27.5t58.5 41t58.5 39.5t37.5 25q4 4 20.5 17t16.5 19v412h-229v-581z" />
<glyph unicode="Q" horiz-adv-x="1024" d="M102 176v1696q0 74 49.5 125t122.5 51h471q74 0 125.5 -51t51.5 -125v-1696q0 -74 -31 -125q-16 -27 -55 -41l82 -20v-269l-525 170v109h-119q-74 0 -123 51t-49 125zM389 295q0 -10 10.5 -20.5t24.5 -10.5h178q14 0 23.5 10.5t9.5 20.5v1446q0 31 -33 31h-178 q-35 0 -35 -31v-1446z" />
<glyph unicode="R" horiz-adv-x="1067" d="M102 0v2048h680q20 0 42 -12.5t38.5 -31.5t26.5 -45t10 -50v-576q0 -35 -13.5 -66.5t-34 -60t-45 -54.5t-46.5 -48v-21l205 -1083h-277l-176 922l-133 -97v-825h-277zM381 1174l192 133q10 8 20.5 18t16.5 18v412h-229v-581z" />
<glyph unicode="S" horiz-adv-x="948" d="M102 135v635q0 2 267 -172v-293l12 -18h197v544l-435 318q-12 10 -26.5 39t-14.5 45v676q0 25 13.5 49t35 43.5t46 32t49.5 12.5h475q20 0 41.5 -12.5t40 -32t31 -42t12.5 -40.5v-330l-266 -159v327h-191l-16 -14v-373q0 -6 6 -14t10 -13l391 -286q18 -16 42 -45t24 -58 v-837q0 -20 -12.5 -41t-32 -38.5t-41 -27.5t-39.5 -10l-506 2q-18 6 -37.5 20.5t-37 33t-28 39t-10.5 40.5z" />
<glyph unicode="T" horiz-adv-x="1071" d="M102 1757v291h867v-291h-299v-1757h-279v1757h-289z" />
<glyph unicode="U" horiz-adv-x="1034" d="M102 125v148.5v229.5v281.5t1 308t1 307v279.5v225.5v143.5h295v-1747q0 -4 6.5 -13t12.5 -9h198q4 2 12.5 10t6.5 12v1747h297v-1923q0 -25 -13.5 -47.5t-35 -41t-47 -28.5t-48.5 -10h-550q-25 0 -47.5 11t-41 29.5t-31 41t-16.5 45.5z" />
<glyph unicode="V" horiz-adv-x="1161" d="M102 2048h279l199 -1673l198 1673h281l-242 -2046h-473z" />
<glyph unicode="W" horiz-adv-x="1423" d="M102 717v1331h275v-1335l80 -439l2 5l119 438v1331h278v-1331l111 -422l2 4l78 414v1335h274v-1331l-156 -717h-342l-106 305h-2l-107 -305h-350z" />
<glyph unicode="X" horiz-adv-x="1073" d="M102 -2v569l295 504l-295 506v471h277v-469l160 -268l157 268v469h275v-471l-291 -506l291 -504v-569h-275v561l-157 270l-160 -270v-561h-277z" />
<glyph unicode="Y" horiz-adv-x="1073" d="M102 1579v469h277v-469l156 -319h2l157 319v469h277v-469l-293 -725v-854h-279v854z" />
<glyph unicode="Z" horiz-adv-x="1013" d="M102 0l435 1755h-414v293h788l-430 -1757h396v-291h-775z" />
<glyph unicode="\" horiz-adv-x="765" d="M102 2048h283l279 -2050h-281z" />
<glyph unicode="a" horiz-adv-x="1189" d="M102 0l260 2048h465l260 -2048h-294l-50 358h-297l-47 -358h-297zM483 657h224l-111 846h-4z" />
<glyph unicode="b" horiz-adv-x="929" d="M102 0v2048h588q55 0 96 -43t41 -96v-537l-75 -188l73 -334l2 -774q0 -29 -30.5 -52.5t-57.5 -23.5h-637zM375 276h129q18 0 34.5 19.5t16.5 36.5v413l-31 105h-149v-574zM375 1184h104l76 188v283q0 23 -19.5 40t-39.5 17h-121v-528z" />
<glyph unicode="c" horiz-adv-x="944" d="M102 117v1812q0 18 12.5 39t31 39t40 29.5t39.5 11.5h480q27 0 52 -12.5t43.5 -33t30 -46t11.5 -51.5v-400l-287 -252v430q0 23 -29.5 40.5t-50.5 17.5q-20 0 -51 -15.5t-31 -39.5v-1324q0 -27 31 -41t51 -14q23 0 51.5 18.5t28.5 47.5v516l287 -297v-449q0 -57 -43 -100 t-101 -43h-473q-18 0 -39.5 11.5t-40 28.5t-31 37.5t-12.5 39.5z" />
<glyph unicode="d" horiz-adv-x="905" d="M102 0v2048h613q27 0 57.5 -23.5t30.5 -52.5v-1896q0 -12 -8.5 -24.5t-19.5 -24t-24.5 -18.5t-23.5 -7zM375 340h88q18 0 32.5 19.5t14.5 35.5v1276q0 14 -14.5 27.5t-28.5 13.5h-92v-1372z" />
<glyph unicode="e" horiz-adv-x="927" d="M102 0v2048h723v-291h-444v-506h444v-293h-444v-667h444v-291h-723z" />
<glyph unicode="f" horiz-adv-x="927" d="M102 0v2048h723v-291h-444v-506h342v-293h-342l4 -958h-283z" />
<glyph unicode="g" horiz-adv-x="942" d="M102 121v1806q0 16 12.5 38t30 40t38 30.5t36.5 12.5h488q25 0 49 -12.5t42.5 -33t30 -46t11.5 -51.5v-250l-287 -211v235q0 29 -29.5 46.5t-52.5 17.5q-18 0 -49 -15.5t-31 -39.5v-1332q0 -25 31 -36t49 -11q6 0 17.5 3t23.5 9.5t20.5 13.5t8.5 15l-2 518h-84l84 318 h297v-1186l-162 59h-2q-12 -6 -37 -25.5t-47 -33.5h-369q-18 0 -38.5 12.5t-38 30.5t-29 38.5t-11.5 39.5z" />
<glyph unicode="h" horiz-adv-x="1073" d="M102 0v2048h275v-791h319v791h275v-2048h-275v952h-319v-952h-275z" />
<glyph unicode="i" horiz-adv-x="481" d="M102 0v2048h277v-2048h-277z" />
<glyph unicode="j" horiz-adv-x="946" d="M102 143v451l291 297v-518q0 -29 29 -47.5t53 -18.5q8 0 22.5 4t28 12.5t22.5 17.5t9 21v1686h287v-1931q0 -18 -12.5 -39t-31 -38t-39 -28.5t-38.5 -11.5h-481q-55 0 -97.5 44t-42.5 99z" />
<glyph unicode="k" horiz-adv-x="1069" d="M102 0v2048h277l4 -870l227 170l4 700h289v-829l-143 -109l207 -1110h-283l-172 926l-129 -97l-4 -829h-277z" />
<glyph unicode="l" horiz-adv-x="927" d="M102 0v2048h277l2 -1757h444v-291h-723z" />
<glyph unicode="m" horiz-adv-x="1064" d="M102 0v2048h273l157 -516l158 516h273v-2048h-273v1079l-158 -497l-155 497v-1079h-275z" />
<glyph unicode="n" horiz-adv-x="1062" d="M102 0v2048h273l313 -1030v1030h273v-2048h-252l-332 1077v-1077h-275z" />
<glyph unicode="o" horiz-adv-x="946" d="M102 117v1814q0 18 12.5 39t31 38t40 28.5t39.5 11.5h482q55 0 96 -44t41 -99v-1762q0 -55 -41 -99t-96 -44h-482q-18 0 -39.5 11.5t-40 28.5t-31 38t-12.5 39zM393 362q0 -12 9.5 -21t21.5 -17.5t26.5 -12.5t24.5 -4q23 0 52.5 18.5t29.5 47.5v1302q0 29 -29.5 47.5 t-52.5 18.5q-10 0 -24.5 -4t-26.5 -12.5t-21.5 -17.5t-9.5 -21v-1324z" />
<glyph unicode="p" horiz-adv-x="905" d="M102 0v2048h613q27 0 57.5 -23.5t30.5 -52.5v-1052q0 -12 -8.5 -24.5t-19.5 -24t-24.5 -18.5t-23.5 -7h-350v-846h-275zM375 1184h88q18 0 32.5 19.5t14.5 35.5v432q0 14 -14.5 27.5t-28.5 13.5h-92v-528z" />
<glyph unicode="q" horiz-adv-x="950" d="M102 117v1814q0 18 12.5 39t31 38t40 28.5t39.5 11.5h482q55 0 96 -44t41 -99v-1762q0 -41 -21.5 -75.5t-56.5 -53.5l82 -24v-269l-442 150v129h-181q-18 0 -39.5 11.5t-40 28.5t-31 38t-12.5 39zM393 362q0 -12 9.5 -21t21.5 -17.5t26.5 -12.5t24.5 -4q23 0 52.5 18.5 t29.5 47.5v1302q0 29 -29.5 47.5t-52.5 18.5q-10 0 -24.5 -4t-26.5 -12.5t-21.5 -17.5t-9.5 -21v-1324z" />
<glyph unicode="r" horiz-adv-x="933" d="M102 0v2048h615q27 0 57.5 -23.5t30.5 -52.5v-1050q0 -35 -33 -53.5t-59 -22.5l118 -846h-280l-121 846h-53v-846h-275zM375 1186h88q18 0 32.5 19.5t14.5 35.5v434q0 14 -14.5 27.5t-28.5 13.5h-92v-530z" />
<glyph unicode="s" horiz-adv-x="946" d="M103 1919.5q-1 32.5 6.5 61t26 48t57.5 19.5h563q31 0 59.5 -21.5t28.5 -56.5v-391l-283 -184v295q0 29 -27.5 39t-50.5 10q-29 0 -55.5 -13.5t-26.5 -48.5v-426q0 -8 8.5 -21t14.5 -16l383 -192q4 0 20.5 -13.5t16.5 -27.5v-905q0 -35 -29 -55.5t-59 -20.5h-563 q-23 0 -53.5 17.5t-30.5 45.5v705l292 -156v-202q0 -23 27 -43.5t49 -20.5q27 0 51.5 14.5t24.5 42.5v359l-23 20l-391 207q-12 8 -19 21.5t-11 25.5v101.5t-1.5 146.5t-1.5 168t-1 167t-1 143.5v97.5q0 27 -1 59.5z" />
<glyph unicode="t" horiz-adv-x="925" d="M102 1755v293h721v-293h-221v-1755h-276v1755h-224z" />
<glyph unicode="u" horiz-adv-x="946" d="M102 117v1931h291v-1686q0 -12 9.5 -21t21.5 -17.5t26.5 -12.5t24.5 -4q23 0 52.5 18.5t29.5 47.5v1675h287v-1905q0 -55 -41 -99t-96 -44h-482q-18 0 -39.5 11.5t-40 28.5t-31 37.5t-12.5 39.5z" />
<glyph unicode="v" horiz-adv-x="1161" d="M102 2048h279l199 -1673l198 1673h281l-242 -2046h-473z" />
<glyph unicode="w" horiz-adv-x="1239" d="M102 2v2046h273v-1583l237 471l246 -455v1567h279v-2046h-344l-181 315l-166 -315h-344z" />
<glyph unicode="x" horiz-adv-x="1077" d="M102 2048h279l158 -537l157 537h279l-297 -1024l297 -1022h-279l-157 533l-158 -533h-277l295 1022z" />
<glyph unicode="y" horiz-adv-x="987" d="M102 1092v956h281v-788q0 -2 5 -6.5t9 -4.5h201v799h287v-1931q0 -18 -12.5 -39t-31 -38t-39 -28.5t-38.5 -11.5h-481q-55 0 -97.5 44t-42.5 99v451l291 297v-518q0 -29 29 -47.5t53 -18.5q8 0 22.5 4t28 12.5t22.5 17.5t9 21v601h-369q-18 0 -39.5 13t-40 32.5t-32 42 t-15.5 41.5z" />
<glyph unicode="z" horiz-adv-x="933" d="M102 0v299l453 1454h-453v295h729v-299l-448 -1458h448v-291h-729z" />
<glyph unicode="&#xa2;" horiz-adv-x="964" d="M102 143v858q6 -4 22.5 -16t35 -24.5t35 -24.5t22.5 -16q0 -2 4 -5.5t8 -3.5v7v9t-4 13t-11 37t-16.5 55.5t-17.5 55t-10 36.5v4v2l4 3l148 114v6h-191q-2 2 -2 4v9q-4 8 -8 21t-8 28q-6 16 -11 33v555q0 29 12.5 55.5t33 45.5t46 31.5t52.5 12.5h489q20 0 43 -11.5 t41.5 -28.5t30.5 -37.5t12 -41.5v-477l-262 -192h-6v485q-4 4 -6 10q-10 10 -8 10h-191l-8 -8q-2 -291 -2 -561v-889v-2q0 -4 2 -14t8 -10h191q4 0 9 10t5 14v483q8 -4 13 -6t11 -6q29 -23 70 -53.5t80 -58.5q45 -35 94 -70v-477q0 -18 -12 -39t-30.5 -38t-41 -28.5 t-43.5 -11.5h-489q-27 0 -52.5 12.5t-46 31.5t-33 45t-12.5 54z" />
<glyph unicode="&#xa3;" horiz-adv-x="481" d="M102 0v2048h277v-700l-31 -95h-198l12 -14l135 -102q6 -4 10 -6.5t4 -8.5v-6l-61 -205h2h4l4 4q2 2 3 2.5t3 2.5q6 4 20.5 15t31 22.5t30.5 22.5t21 15l10 4v-999h-277z" />
<glyph unicode="&#xa4;" horiz-adv-x="1034" d="M102 127v1794q14 49 50 82t86 45h546q55 0 94.5 -37t53.5 -90v-1794q-12 -55 -52 -89t-94 -38h-565q-45 10 -72.5 42t-44.5 73q0 2 -1 6t-1 6zM242 1251l147 -110q8 -4 9 -6t1 -11q0 -2 -1 -3t-1 -3v-4l-55 -192v-7l57 41v-653q0 -4 6.5 -12t12.5 -8h200q4 4 7.5 8t9.5 8 v657q6 -4 24.5 -17t24.5 -17l8 -4v4l-55 186q-2 2 -2 16v7.5t2 5.5q0 2 4 6l6 6l137 102h-149v498q-4 4 -8 7t-9 7h-200q-6 0 -12.5 -7t-6.5 -13v-490h-157v-2z" />
<glyph unicode="&#xa5;" horiz-adv-x="1073" d="M102 1579v469h277v-469l160 -317l-62 120h-256q0 -2 3 -6t20.5 -17t54.5 -41t104 -79l-65 -235l194 139l205 -139l-71 233q92 86 139 117.5t31 27.5h-236l-61 -120l155 317v469h277v-469l-293 -725v-854h-279v854l-61 150z" />
<glyph unicode="&#xa7;" horiz-adv-x="1001" d="M102 129v260l273 164v-266h252v301q-104 0 -206 1t-206 1q-37 14 -75 52t-38 85v1190q0 25 13.5 49.5t35 43t46 29.5t49.5 11h522q23 0 46.5 -12.5t41.5 -30.5t30.5 -40.5t12.5 -43.5v-262l-270 -164v270h-250v-305h409q18 -6 38 -20.5t36.5 -32.5t26.5 -39.5t10 -42.5 v-1190q0 -27 -13.5 -52.5t-35 -45t-46 -30.5t-48.5 -11h-523q-20 0 -43.5 13.5t-43 32.5t-32 42t-12.5 43zM190 1092q0 -2 3.5 -6.5t20.5 -17.5t54 -41t105 -79l-66 -235l195 139l205 -139l-72 233q92 86 139 118t31 28h-215l-88 286l-88 -286h-224z" />
<glyph unicode="&#xa9;" horiz-adv-x="3174" d="M102 1573v6q0 12 13.5 27.5t23.5 15.5q4 0 6 -2l113 125q10 4 30.5 12t20.5 29h113q-2 -6 -6 -22.5t-8.5 -35t-8.5 -35t-6 -22.5q-4 -4 -6 -10t-4 -10h-12q-4 4 -11.5 15t-9.5 15q-2 0 -2 2t-1 2.5t-1 2.5l-4 4q-6 -4 -17.5 -15.5t-24.5 -24t-25.5 -24.5t-16.5 -16 q-2 -4 -6 -11.5t-4 -11.5v-10q25 -20 51.5 -37.5t47 -37t33.5 -44t13 -59.5v-19q-8 -10 -26.5 -37.5t-40 -58.5t-41 -58.5t-27.5 -37.5q-4 -4 -22.5 -24.5t-28.5 -28.5l-21 -9q-20 -16 -32.5 -29.5t-40.5 -13.5v23q6 8 21.5 29.5t31.5 46t30.5 46t20.5 32.5q6 8 8 14t3 12 t3 14.5t7 20.5q4 12 12 23.5t17 21.5t16.5 21.5t7.5 25.5q0 10 -13.5 24.5t-30 28t-34.5 24.5t-27 15l-30 11q-8 4 -27.5 24.5t-24.5 26.5q-2 2 -2 4zM463 1765q8 -4 18 -4t17.5 4t7.5 15h215l49 -56v-174l-49 -51h-33l-10 -7q-10 -7 -22.5 -16.5t-26 -20.5t-21.5 -17 l-20 -23l-13 -112q0 -12 -6 -36t-16 -47.5t-24.5 -40t-30.5 -16.5v549q-2 0 -11.5 4t-11.5 8q-4 4 -8 19.5t-4 21.5zM567 1004v8l133 12q8 0 32 1t49.5 2t49 1h33.5q6 -6 6 -16q0 -16 -9 -41t-20.5 -47.5t-20.5 -38t-9 -13.5q-4 12 -14.5 32t-26.5 28q0 2 -7 -2t-11 -4v-219 q6 -2 29.5 -6.5t31.5 -4.5q8 -2 15.5 -6t15.5 -14q-23 -35 -39.5 -48.5t-56.5 -23.5v-395q-35 0 -48 24q-8 12 -19 35t-22.5 44.5t-18.5 37t-7 17.5v237q-14 16 -24.5 37t-12.5 45q8 2 16 6q16 8 17 15v225zM588 1522q10 0 26.5 6t33 16t28.5 21.5t12 23.5v123h-100v-190z M821 1759q0 2 2 7.5t2 9.5q0 -6 11 -11q6 -2 12 -2h4q2 0 2 2q2 2 6 6.5t4 8.5h62v-604q-12 0 -19.5 7t-11.5 18t-6 22.5t-6 17.5q0 6 -12.5 21.5t-16.5 19.5l-10 330q0 6 -1 20.5t-3 29.5t-4 29.5t-2 20.5l-9 33q-2 2 -2 6q-2 2 -2 8zM926 420v522q0 20 8 29.5t19.5 15.5 t23.5 12.5t18 20.5h176q2 0 17.5 -25.5t23.5 -40.5q4 -6 6.5 -12t6.5 -12l-13 -8v-410q-6 -6 -22 -22.5t-33.5 -35t-34 -33.5t-22.5 -22q-2 -2 -10.5 -8t-16.5 -12t-15 -12.5t-7 -8.5l-21.5 -21.5l-21.5 -21.5h-9q-12 0 -21 9.5t-15.5 21.5t-10.5 24.5t-6 16.5l-8 12 q-4 4 -8 11.5t-4 9.5zM979 1784q0 10 8 10q6 0 6 -10q0 -8 -6 -8q-8 0 -8 8zM985 1755v4q0 10 6 13.5t13.5 3.5t14.5 1t9 9h184l41 -62v-421l-7 -13q-7 -12 -16 -28.5t-20.5 -33t-17.5 -28.5q-4 -8 -11 -19.5t-10 -11.5q-4 -4 -25.5 -7t-25.5 -5q-4 0 -20.5 -18.5 t-20.5 -20.5h-8q-6 20 -8 48t-6 54.5t-13.5 49t-29.5 33.5v421q-4 4 -13.5 14.5t-13.5 14.5q-2 0 -2 2zM1038 446q14 0 28.5 13.5t26 33t18.5 39t9 31.5q0 18 2 63.5t4 95.5t3 96t1 65v20q0 29 -18 35t-41 6l-33 -2v-496zM1100 1249q14 0 26.5 12.5t22.5 29t18.5 33.5 t16.5 30v278q-10 20 -15.5 46t-5.5 46h-63v-475zM1296 1786h236l12 -14l-2 -7q-12 -16 -30.5 -33.5t-41.5 -19.5v-205q10 0 37 -4t35 -4q2 -4 5 -7t3 -5q-18 -29 -30.5 -43t-49.5 -19v-251h76v-7q0 -6 -4 -10q-12 -23 -21.5 -20.5t-29.5 -8.5q-4 -2 -15.5 -11t-15.5 -9h-30 q-4 -2 -21.5 -15.5t-19.5 -17.5h-11q-4 4 -10 11.5t-6 9.5v342q-12 10 -18.5 27.5t-6.5 33.5q2 0 9.5 3t11.5 5v205zM1305 973v22q10 -10 18 -11t20 -1q8 0 12.5 5t8.5 11.5t9 11.5t16 5l20 -21l92 -299q4 -20 21 -30q4 2 11 9t9 11v10q-12 53 -16 96.5t-4 98.5v104 q12 -12 32 -12h11q14 0 23 6t17.5 14.5t17.5 14.5t26 6q0 -23 -3.5 -44.5t-17.5 -37.5v-680q-16 0 -24.5 5t-12.5 13.5t-7 20.5t-11 27q-12 23 -33.5 53.5t-38.5 46.5q-4 10 -13 37t-18.5 56.5t-18.5 56t-13 36.5q-4 16 -12.5 38t-22.5 34v-434q-16 0 -25 12 q-14 23 -25.5 50.5t-27.5 52.5q-2 2 -3 5t-3 7l-4 8v524q-8 20 -9 32.5t-1 29.5zM1350 1776q0 10 8 10q6 0 6 -10t-6 -11q-8 0 -8 11zM1581 1737v4q0 2 2 4l4 4l4 4h54q4 2 25.5 6t25.5 6q4 0 17 2t28.5 4.5t29 3.5t17.5 1l14 10q14 0 26.5 -9.5t22 -23.5t14.5 -28.5 t5 -26.5l-62 -180v-19l125 -362h-22q-4 10 -19.5 33.5t-21.5 29.5q-2 2 -19.5 14.5t-21.5 16.5t-11.5 11t-9.5 7q-29 59 -47 122t-59 116v-391h-16q-8 47 -30 81.5t-32 71.5v64q0 23 -1 81t-3 124.5t-4 124.5t-2 81q-12 0 -21 7q-6 2 -12 6zM1696 1565q0 -14 5 -20.5 t21 -6.5q8 0 22.5 18.5t29 43t24.5 48t10 33.5l-10 11q0 4 -2 16t-2 16h-88l-10 -135v-24zM1706 1004v12h299v-33q0 -4 -20.5 -22.5t-30.5 -28.5q-4 -2 -18.5 -6t-20.5 -4v-672q-18 0 -27.5 10t-13.5 23.5t-6 29t-8 25.5q-4 8 -21.5 30.5t-23.5 30.5v484q-23 12 -27 19 t-21 30q-4 4 -13 15t-18.5 22.5t-18.5 20.5t-11 14zM1739 1006q0 10 8 10t8 -10t-8 -11q-8 0 -8 11zM1974 1292v207l19 19q2 2 6 22.5t8 48t9 56t7 47.5v18q0 20 -4 35.5t-14 40.5h203q4 0 7 -4t5 -6q0 -4 5 -19.5t5 -23.5q2 -6 6.5 -34t9.5 -58.5t10 -57.5t5 -33 q2 -18 8 -24l10.5 -10.5l8.5 -8.5t4 -18q0 -23 -5.5 -37t-5.5 -37l33 -291q-25 0 -26.5 8.5t-16.5 24.5q-4 4 -20.5 21.5t-20.5 21.5l-10 31l-33 151q0 10 -4 27l-4 16h-92q-12 0 -19.5 -44t-14.5 -98t-15 -101t-25 -54q-4 2 -9 24t-10 49.5t-10.5 53t-9.5 37.5zM2036 1776 q0 10 10 10q8 0 8 -10t-8 -11q-10 0 -10 11zM2042 784q0 4 1 9.5t3 5.5q4 4 15.5 8t19.5 4l6 -2l164 164q16 18 43.5 18t48.5 13q0 2 9 11t11 9q4 2 16.5 4t16.5 2q0 -8 -5 -33.5t-13 -53.5t-16.5 -50.5t-14.5 -22.5q-12 0 -23.5 21.5t-21.5 30.5l-115 -123q16 -18 38 -33.5 t43.5 -30t42 -31t32.5 -38.5q0 -4 4 -15.5t6 -15.5q2 -6 10.5 -25.5t12.5 -25.5l-176 -256q-4 -4 -18.5 -20.5t-22.5 -20.5l-21 -13q-27 -23 -42 -38t-50 -15v25q6 6 20.5 19.5t31 29.5t30.5 31.5t18 21.5q6 6 14.5 16.5t17.5 22.5t15.5 24.5t6.5 22.5t-6.5 15.5t-6.5 17.5 t13.5 22.5t30 22.5t29.5 27.5t13 33.5q0 10 -11 26.5t-21 25.5q-6 6 -19.5 16t-29 21.5t-28 20.5t-18.5 13q-2 0 -8 4.5t-10 6.5q-4 0 -16.5 4t-16.5 6l-25.5 25.5t-23.5 27.5q-2 0 -3 6t-1 8zM2087 1518q6 -4 29.5 -11.5t29.5 -7.5t14.5 4t8.5 8q0 20 -9.5 50t-13.5 51 q0 6 -3 25.5t-6 41t-6 40t-3 26.5l-10 -12q-2 0 -6.5 -23.5t-8.5 -56.5t-9 -68t-7 -57v-10zM2353 1759h41q4 6 10 16.5t15 10.5q20 0 27.5 -31t12.5 -67.5t12 -67.5t26 -31q16 0 20 10v82q2 6 6 25.5t4 26.5q4 12 20.5 14t20.5 6q4 2 16.5 15.5t16.5 17.5q2 2 15.5 4t17.5 2 q0 -35 -25 -68q-4 -18 -15 -63t-22.5 -96.5t-21.5 -96.5t-13 -63q0 -6 -2 -43t-3 -80t-4 -78t-5 -37h-4q-2 0 -2 2q-2 0 -6 3.5t-4 7.5q-6 10 -21.5 41t-19.5 41q-6 133 -37 250.5t-76 246.5zM2466 973h61q0 -4 -4 -9.5t-6 -9.5q0 -6 -2 -22.5t-4 -34.5t-3 -33.5t-1 -21.5 q-6 4 -12.5 12t-6.5 16q-2 4 -4 17.5t-3 29t-3 28.5t-2 18zM2490 778q1 10 7 10q8 0 8 -10q0 -8 -8 -8q-6 0 -7 8zM2503 770h14q4 -4 14.5 -13t21.5 -19.5t21.5 -19.5t14.5 -11q2 -2 16 -12.5t32.5 -24t37 -26.5t28.5 -19q4 -4 16.5 -12.5t14.5 -8.5q4 0 15.5 8.5t13.5 12.5 l2 61q0 49 -10.5 90t-32.5 84q0 2 -5 11.5t-10.5 19.5t-9.5 19.5t-6 11.5v12q18 0 27.5 -20.5t15.5 -30.5q2 -6 8 -20.5t13.5 -30t12.5 -27.5t7 -17q16 -41 17 -78.5t4 -84.5l8 -11q2 8 9 26.5t13 40t12.5 40t8.5 27.5l8 61l10 10v-20q0 -57 -18.5 -104.5t-18.5 -98.5 q25 0 53.5 6t53 20.5t43 35t22.5 49.5l2 -21q0 -31 -15 -49.5t-36.5 -29.5t-48.5 -18t-47 -16l-8 -10q35 -20 74.5 -40.5t68.5 -51.5q29 -33 55.5 -59.5t26.5 -69.5v-14q-8 23 -25.5 47t-39 47.5t-46 44t-45.5 33.5h-8q0 -10 -3 -26.5t-10 -31t-17.5 -24.5t-26.5 -10t-37 14 t-31 29v-11q0 -16 14.5 -59t32 -89t30.5 -83t13 -39q-4 0 -6 2q-2 0 -2 2q-27 18 -46 52t-32.5 76t-19.5 85t-6 78v18.5t2 16.5q-2 0 -6 -3t-4 -8l-9 -12q-23 -35 -45 -57.5t-71 -22.5h-19q-14 0 -27.5 1t-23.5 10q6 0 19.5 1t27.5 3t27.5 4t17.5 4q45 10 60.5 42t31.5 70 l-4 5l-4 4q-4 2 -14 6t-22.5 10t-23 10t-12.5 6q-6 2 -25.5 10.5t-27.5 20.5q2 0 7 1t10 1q2 0 3 -1t5 -1h6q16 0 31.5 -10t33.5 -10h9q-4 0 -6.5 4t-4.5 6q-4 2 -16 11t-25.5 19.5t-27 18.5t-15.5 10t-13 13.5t-25.5 25t-30 26.5t-23.5 19q-4 4 -14 12.5t-10 20.5z M2544 955.5v21.5q23 0 29.5 -7t15.5 -28q4 14 14 26.5t27 12.5v-139h-11q-4 16 -16 33.5t-29 27.5v-61q-10 2 -17 11t-7 17q-2 6 -3 20.5t-2 32t-1 33zM2568 614q0 4 4 4q6 0 6 -4q0 -6 -4 -6q-6 0 -6 6zM2650 1569v10q0 12 12.5 27.5t22.5 15.5q4 0 6 -2l113 125 q10 4 30.5 12t20.5 29h115l-7.5 -22.5t-9.5 -35t-8 -35t-6 -22.5q0 -4 -4 -10t-6 -10h-13q0 4 -9 15t-11 15q0 2 -3 6.5t-5 4.5q-6 -4 -17.5 -15.5t-25 -24t-25.5 -24.5l-16 -16l-8 -23v-10q25 -20 50 -37.5t45.5 -37t34 -44t13.5 -59.5v-19q-6 -10 -25.5 -37.5t-41 -58.5 t-41 -58.5t-27.5 -37.5q-4 -4 -23.5 -24.5t-27.5 -28.5l-19 -9q-23 -16 -34 -29.5t-38 -13.5v23q6 8 20.5 29.5t30 46t30 46t20.5 32.5q12 18 12 26t8 35q4 12 13.5 23.5t18.5 21.5t15 21.5t6 25.5q0 10 -12 24.5t-28.5 28t-34 24.5t-27.5 15q-4 2 -16.5 5.5t-14.5 5.5 q-4 2 -11 9t-16.5 15t-16.5 15.5t-9 11.5z" />
<glyph unicode="&#xad;" horiz-adv-x="1075" d="M102 956v304h871v-304h-871z" />
<glyph unicode="&#xae;" horiz-adv-x="2250" d="M102 0v565h566v-565h-566zM102 655v74h154v-74h-154zM102 819v76h236v86h-76v84h-80v86h244v158h80v-82h162v-76h-76v-86h-82v-80h82v80h162v248h82v164h79v75h-79v-69h-78v159h78v80h86v86h73v72h-73v-68h-164v76h164v82h75v76h166v-76h-80v-162h-86v-86h-71v-75h71v75 h86v86h84v80h162v158h164v-158h-164v-80h-76v-86h-166v-75h166v69h72v-239h-72v-76h-79v76h71v75h-78v-75h-84v-82h-79v-82h79v-156h84v70h162v164h164v-78h-78v-162h-80v-80h80v80h80v162h164v78h80v-164h-160v-162h-76v-80h76v76h160v-166h-74v-158h80v82h80v76h164v86h84 v80h75v-238h-75v70h-84v-74h-160v-246h82v80h78v76h77v-76h-77v-84h-78v-80h-82v-86h82v-77h71v-86h-157v-162h-166v-78h-74v78h74v82h80v162h-160v-162h-84v-160h-321v78h71v76h-78v-76h-170v-78h-71v78h71v82h82v162h-82v-156h-75v70h-86v-70h-78v74h78v86h79v163h-161 v164h-328v80h-84v86h-240zM102 1233v158h78v-72h82v72h76v-158h-236zM102 1483v563h566v-563h-566zM182 82h406v405h-406v-405zM182 1563h406v403h-406v-403zM268 166v235h234v-235h-234zM268 1647v233h234v-233h-234zM432 823h70v70h-70v-70zM510 737h487v82h82v162h-82v80 h-243v-80h-158v-86h72v-76h-158v-82zM596 1319v72h154v-72h-154zM758 0v70h73v-70h-73zM758 1976v70h157v-70h-157zM840 823v70h75v-70h-75zM840 1157h155v70h-73v82h-82v-152zM926 569h153v-80h-75v-79h163v77h78v-161h-71v-86h155v-158h86v78h78v80h-78v86h-80v163h80v330 h160v74h-160v-70h-86v154h-76v-158h-86v-86h-170v-80h-71v-84zM1004 1483h75v69h-75v-69zM1174 573v156h151v-76h-72v-80h-79zM1174 985h71v160h-71v-160zM1419 1483v69h74v-69h-74zM1419 1647v155h74v-155h-74zM1503 410h236v237h-236v-237zM1585 496v69h68v-69h-68z M1585 1483v563h563v-563h-563zM1665 1563h401v403h-401v-403zM1749 1151v76h76v86h86v78h71v-78h-67v-80h74v80h84v78h75v-234h-75v66h-84v-72h-78v-80h-86v80h-76zM1749 1647v233h233v-233h-233zM1829 0v70h76v-70h-76zM1993 166v70h155v-70h-155zM1993 410v79h80v158h75 v-237h-155zM2079 0v70h69v-70h-69z" />
<glyph unicode="&#xb5;" horiz-adv-x="1032" d="M102 115v1929h291v-1743l15 -16h223v1759h299v-539q0 -2 -3 -13t-5 -19q-6 -23 -16.5 -57t-21 -67.5t-18.5 -60t-10 -35.5h-186q35 -35 73.5 -65.5t77.5 -59.5q-4 -18 -13 -46.5t-18.5 -60.5t-17.5 -60.5t-10 -45.5q12 8 33.5 24.5t46 35t48 34t40.5 25.5v-909 q0 -25 -13.5 -47.5t-35 -40t-47 -28.5t-48.5 -11h-546q-18 0 -43 10t-45.5 27.5t-35 38t-14.5 41.5z" />
<glyph unicode="&#xbf;" horiz-adv-x="950" d="M102 143v688q0 12 3.5 33t8.5 43.5t13 42t20 29.5l195 149q20 14 29.5 41t11.5 52.5t1 34.5l-3 28l2 8t4 45t3 114t-1 214h270v-463q-2 -41 -1 -88t-19 -84l-231 -219l-19 -31v-411q0 -12 13.5 -23.5t31 -20t35.5 -12.5t29 -4q10 0 27.5 5t33.5 13.5t27.5 19.5t11.5 24 v325l250 -256v-301q0 -27 -11.5 -52.5t-31 -44.5t-45 -30.5t-51.5 -11.5h-486q-25 0 -46 14.5t-37.5 36t-27 46t-10.5 46.5zM389 1753v293h268v-293h-268z" />
<glyph unicode="&#xc6;" horiz-adv-x="1880" d="M102 0l244 2048h465l244 -2048h-275l-39 311h-325l-37 -311h-277zM455 614h252l-129 1028zM1054 0v2048h723v-291h-444v-506h403l-82 -293h-321v-667h444v-291h-723z" />
<glyph unicode="&#xe6;" horiz-adv-x="1914" d="M102 0l260 2048h465l260 -2048h-294l-50 358h-297l-47 -358h-297zM483 657h224l-111 846h-4zM1089 0v2048h723v-291h-444v-506h444v-293h-444v-667h444v-291h-723z" />
<glyph unicode="&#x152;" horiz-adv-x="1744" d="M102 176v1696q0 74 49.5 125t122.5 51h471q74 0 125.5 -51t51.5 -125v-1696q0 -74 -51.5 -125t-125.5 -51h-471q-74 0 -123 51t-49 125zM389 295q0 -10 10.5 -20.5t24.5 -10.5h178q14 0 23.5 10.5t9.5 20.5v1446q0 31 -33 31h-178q-35 0 -35 -31v-1446zM919 0v2048h723 v-291h-444v-506h403l-82 -293h-321v-667h444v-291h-723z" />
<glyph unicode="&#x153;" horiz-adv-x="1671" d="M102 117v1814q0 18 12.5 39t31 38t40 28.5t39.5 11.5h482q55 0 96 -44t41 -99v-1762q0 -55 -41 -99t-96 -44h-482q-18 0 -39.5 11.5t-40 28.5t-31 38t-12.5 39zM393 362q0 -12 9.5 -21t21.5 -17.5t26.5 -12.5t24.5 -4q23 0 52.5 18.5t29.5 47.5v1302q0 29 -29.5 47.5 t-52.5 18.5q-10 0 -24.5 -4t-26.5 -12.5t-21.5 -17.5t-9.5 -21v-1324zM845 0v2048h723v-291h-444v-506h444v-293h-444v-667h444v-291h-723z" />
<glyph unicode="&#x2000;" horiz-adv-x="1026" />
<glyph unicode="&#x2001;" horiz-adv-x="2052" />
<glyph unicode="&#x2002;" horiz-adv-x="1026" />
<glyph unicode="&#x2003;" horiz-adv-x="2052" />
<glyph unicode="&#x2004;" horiz-adv-x="684" />
<glyph unicode="&#x2005;" horiz-adv-x="513" />
<glyph unicode="&#x2006;" horiz-adv-x="342" />
<glyph unicode="&#x2007;" horiz-adv-x="342" />
<glyph unicode="&#x2008;" horiz-adv-x="256" />
<glyph unicode="&#x2009;" horiz-adv-x="410" />
<glyph unicode="&#x200a;" horiz-adv-x="114" />
<glyph unicode="&#x2010;" horiz-adv-x="1075" d="M102 956v304h871v-304h-871z" />
<glyph unicode="&#x2011;" horiz-adv-x="1075" d="M102 956v304h871v-304h-871z" />
<glyph unicode="&#x2012;" horiz-adv-x="1075" d="M102 956v304h871v-304h-871z" />
<glyph unicode="&#x2013;" horiz-adv-x="1228" d="M102 956v304h1024v-304h-1024z" />
<glyph unicode="&#x2014;" horiz-adv-x="2252" d="M102 956v304h2048v-304h-2048z" />
<glyph unicode="&#x2022;" horiz-adv-x="2232" d="M102 1020q0 211 78 396.5t215 324.5t320.5 220t396.5 81q207 0 392.5 -81t324.5 -219t220 -323.5t81 -394.5q0 -213 -80 -398.5t-217 -323.5t-322.5 -217t-396.5 -79q-213 0 -397.5 80t-320.5 217t-215 321.5t-79 395.5zM117 1020q0 -205 79.5 -387t216 -318.5 t317.5 -215.5t386 -79q209 0 390.5 79t315.5 214.5t210.5 317.5t76.5 389q0 209 -77.5 392t-213 320.5t-317.5 216.5t-391 79q-205 0 -386 -82t-316.5 -220.5t-213 -320.5t-77.5 -385zM145 1020q0 203 76 380t208 309t309 208t378 76q203 0 379 -76t306 -208t205 -309 t75 -380q0 -199 -77 -375t-209 -308t-308 -210t-375 -78q-197 0 -373 78t-308 210t-209 309t-77 374zM371 479h112q6 0 12.5 -15t11.5 -34.5t10 -35t11 -15.5q4 0 9.5 16.5t10.5 35t10 34.5t9 16h99l8 13q-6 4 -20.5 12t-29 17t-25.5 20.5t-11 21.5q0 27 11 49.5t11 47.5v6 l-92 -68l-90 62l-2 -7q0 -27 14.5 -50t14.5 -50q0 -12 -10.5 -22.5t-23.5 -18.5t-27.5 -16.5t-22.5 -18.5zM512 1579h109l38 -100h7q4 8 11 34.5t11 34.5q0 4 3 11.5t3 9.5q2 4 4 11t4 7h105q-4 14 -17.5 21.5t-29 14.5t-26.5 15.5t-11 24.5q0 27 10 49.5t10 46.5v8l-84 -63 h-14q-4 2 -14 9t-20.5 14.5t-20.5 14.5t-15 11q-2 0 -7 3t-7 3v-4q0 -25 14.5 -48.5t14.5 -49.5v-10q-8 -4 -33 -23.5t-31 -26.5q-4 -2 -8 -8t-6 -10zM547 1020q0 -119 45 -223.5t122 -181t181 -120.5t221 -44q119 0 221.5 45t179 121.5t120.5 181t44 221.5t-43 222.5 t-119.5 184t-180 124.5t-222.5 46t-222 -46t-180 -124.5t-122 -183t-45 -223.5zM551 1766q0 -3 2 -3q4 0 4 3t-4 3q-2 0 -2 -3zM567 1016q0 113 42 215t115 179t173 122t217 45q113 0 213 -45t175 -121t119 -177t44 -214q0 -115 -44 -214t-120 -174t-176 -118t-213 -43 t-212 43t-173 117t-117 173t-43 212zM582 1024q0 -109 42 -207t113.5 -172t169 -117t207.5 -43q111 0 207 42t169 115t114 170t41 208t-41 208t-112 169.5t-168 115.5t-208 43q-109 0 -206 -41.5t-169.5 -113.5t-115.5 -169t-43 -208zM596 1028v4v2l14.5 14.5l14.5 14.5 q2 2 26.5 21.5t55 44t63.5 49t51 41.5q10 8 15.5 12t8.5 6t8 2h15q27 0 62 -3t53 -26l274 -352v-22q0 -27 1.5 -67t-21.5 -58l-244 -193l-383 488q-4 4 -8 12t-6 10zM616 1028q2 -2 7.5 -10t7.5 -12l352 -451l14 -12l23 17q24 18 57 44.5t68 54t57 46.5q31 27 36 59.5 t5 73.5q0 14 -10 26.5t-19 22.5q-14 18 -50 64t-75.5 97.5t-75.5 97.5t-50 64q-23 4 -51.5 9.5t-51.5 5.5h-4l-231 -183q-8 -8 -9 -12v-2zM637 1022v2v2l2 2q2 4 12.5 14.5t14.5 12.5q6 4 26.5 21.5t47 37t51 38.5t36.5 30q16 14 20.5 15t24.5 1q33 0 61 -4t50 -33 q10 -14 39 -50t59.5 -77t59 -76.5t39.5 -50.5q4 -6 21.5 -27.5t21.5 -27.5v-10q0 -10 -1 -27.5t-3 -37t-6.5 -36t-10.5 -22.5q-8 -6 -31.5 -24.5t-51 -40t-52.5 -42t-35 -28.5q-4 -4 -15 -12.5t-13 -8.5h-3q-6 0 -10 5.5t-8 9.5q-12 14 -35.5 43.5t-53.5 68.5t-62.5 81 t-62.5 80t-54.5 68.5t-34.5 45.5q-4 6 -20.5 27.5t-20.5 27.5q-2 0 -2 2zM678 485q0 -4 2 -4q4 0 4 4t-4 4q-2 0 -2 -4zM827 1004q0 -10 16.5 -30t20.5 -24q16 -23 43 -56.5t51 -64.5q29 -37 60 -75h8l64 49q-4 4 -11.5 13t-11.5 13q-10 12 -34.5 45t-53.5 69t-53.5 67.5 t-34.5 44.5q-12 -8 -38 -22.5t-26 -28.5zM989 1231v37q0 16 1 41.5t7 42.5l9 8q4 4 6 7t6 5q4 4 20.5 17.5t22.5 17.5q6 6 24.5 20.5t38 30t38 28.5t26.5 19q2 2 6 5t8 3q10 -2 21 -4q10 -2 19 -3t15 -1q10 0 31 -4q8 -2 19 -2q2 -2 13 -12t15 -17q10 -12 27.5 -33.5t33 -42 t26.5 -36.5l12 -15v-6l-134 -106l-14 -6q-2 0 -12 10t-17 18q-4 4 -14 17.5t-14 17.5l-15 -14v-4q0 -10 23 -42t50.5 -67t53 -62.5t29.5 -29.5q6 0 14 8v2q0 6 -2 10.5t-6 8.5q-2 2 -7 10t-12 17.5t-13.5 17.5t-8.5 12l-2 2q0 8 18.5 24.5t44 36t50 37t37.5 25.5 q29 -35 60.5 -76t58.5 -78q0 -4 1 -11t1 -9q0 -35 -4.5 -74t-32.5 -61q-4 -2 -17.5 -13.5t-30 -24.5t-33 -26.5t-24.5 -19.5q-18 -14 -33.5 -25.5t-37.5 -11.5h-31t-38 2t-35.5 8.5t-22.5 20.5q-14 18 -50 63t-76 97.5t-76 98.5t-50 64q-4 4 -11.5 13.5t-11.5 13.5z M1003 1308q1 -32 1 -48q0 -18 9 -29.5t19 -26.5q14 -18 50 -64t77 -98.5t77 -97.5t50 -63q27 -4 55.5 -9.5t57.5 -5.5q12 0 15 3t20 18q8 6 28.5 21.5t41 32.5t39 31.5t24.5 20.5t11 22.5t7 35t3 36t1 25.5t-16.5 31.5t-36.5 48.5t-37.5 43t-19.5 18q-12 0 -28.5 -11 t-35 -27.5t-35 -33t-24.5 -26.5l43 -57q6 -10 6 -19q0 -8 -14.5 -19t-24.5 -11q-6 0 -9 4t-7 10q-8 8 -29 34.5t-44.5 57.5t-45 58.5t-29.5 39.5q-6 2 -10 13l-4 8q2 2 4 6q6 6 10 8q4 4 13.5 11.5t13.5 9.5q6 -6 13 -16.5t15.5 -20.5t15.5 -18.5t13 -8.5q2 2 6 4q2 2 4 2 t4 2q4 2 17.5 13.5t29 24t31 23.5t21.5 15l14 14q-4 4 -11 14.5t-11 14.5q-6 6 -17.5 21.5t-24 31t-22.5 28.5t-12 17q-16 20 -45 21.5t-51 1.5h-16.5t-14.5 -8l-170 -133q-16 -12 -15 -44zM1024 1245q0 33 5 65.5t32 55.5q6 6 25.5 21.5t41 32t40 30.5t26.5 20h8 q25 0 52.5 -5t52.5 -9q4 -6 15 -19.5t23.5 -28.5t23.5 -29.5t15 -20.5q6 -6 7 -15q-2 -6 -16.5 -18t-31 -25.5t-33 -23.5t-22.5 -10q-8 0 -14 9t-12.5 19.5t-13.5 19.5t-15 9q-4 0 -14.5 -6t-19.5 -14.5t-17 -15.5l-8 -7l-5 -4q-2 -2 -4 -2l199 -254q16 12 31.5 24.5 t29.5 24.5q0 2 2 4l-2 4q0 8 -6 15q-4 6 -20.5 27.5t-22.5 27.5v4q0 6 13.5 20.5t30 27.5t33.5 23.5t26 10.5q2 0 4 -2q4 -6 15 -19.5t23.5 -29t23.5 -29.5t16 -20q6 -8 6 -21q0 -31 -4 -71t-31 -62q-4 -4 -17.5 -14.5t-29 -22.5t-30.5 -23.5t-21 -17.5q-16 -10 -17.5 -12 t-15.5 -2q-20 0 -34.5 1t-39.5 5q-8 0 -24 4l-17 4l-254 324q-8 10 -8 20zM1448 352h113q6 0 12 -15t13 -34.5t13.5 -38t10.5 -24.5q4 18 11 46.5t17 51.5q0 8 2 12t5 6h112q-8 8 -23.5 17.5t-30.5 21t-26.5 21.5t-11.5 20v6q2 6 6 20.5t8 30t8.5 30t6.5 20.5 q-4 -4 -16.5 -13.5t-26 -19.5t-25.5 -19.5t-16 -11.5q-2 -2 -4 -3t-4 -3q-4 -2 -7 -2l-94 66l37 -115zM1581 1421h121q2 0 7 -13t10 -30.5t11.5 -35t12.5 -25.5q2 4 7 20.5t11 36.5q8 23 17 51h112q-6 10 -20.5 21.5t-30.5 22t-28.5 19.5t-12.5 17q0 6 2 8q2 6 5 19.5 t8.5 30t8.5 30t5 19.5q-23 -14 -45.5 -39t-48.5 -25q-27 0 -48.5 23.5t-46.5 34.5q0 -2 -2 -4q0 -29 14.5 -52.5t22.5 -50.5v-4v-2q-4 -4 -16 -13.5t-25.5 -19.5t-26 -19t-16.5 -11z" />
<glyph unicode="&#x202f;" horiz-adv-x="410" />
<glyph unicode="&#x205f;" horiz-adv-x="513" />
<glyph unicode="&#x20ac;" horiz-adv-x="933" d="M102 0v1018l142 -103l-68 220l152 118l-187 2l-39 136v657h729v-293h-450v-500h416l-90 -297h-326v-665h450v-293h-729z" />
<glyph unicode="&#x2122;" horiz-adv-x="768" d="M102 1964v84h252v-84h-88v-510h-80v510h-84zM414 1454v594h80l45 -147l45 147h82v-594h-80v320l-47 -148q-2 4 -9 21q-4 14 -12 43.5t-24 83.5v-320h-80z" />
<glyph unicode="&#x25fc;" horiz-adv-x="2048" d="M0 0v2048h2048v-2048h-2048z" />
<glyph unicode="&#xfb01;" horiz-adv-x="1204" d="M102 0v2048h723v-291h-444v-506h342v-293h-342l4 -958h-283zM825 0v2048h277v-2048h-277z" />
<glyph unicode="&#xfb02;" horiz-adv-x="1650" d="M102 0v2048h723v-291h-444v-506h342v-293h-342l4 -958h-283zM825 0v2048h277l2 -1757h444v-291h-723z" />
</font>
</defs>
</svg>
